# xmcd
#
# Track frame offsets: 
#        150
#        17298
#        33571
#        49318
#        67921
#        97205
#        114775
#        130256
#        153527
#        167047
#        181884
#        198533
#
# Disc length: 2869 seconds
#
# Revision: 2
# Processed by: cddbd v1.5.1PL2 Copyright (c) Steve Scherf et al.
# Submitted via: ExactAudioCopy v0.95b3
#
DISCID=9c0b330c
DTITLE=Marty Stuart And His Fabulous Superlatives - Souls' Chapel
DYEAR=2005
DGENRE=Gospel
TTITLE0=Somebody Saved Me
TTITLE1=Lord, Give Me Just A Little More Time
TTITLE2=Way Down (feat. Handsome Harry)
TTITLE3=Come Into The House Of The Lord (feat. Cousin Kenny)
TTITLE4=The Gospel Story Of Noah's Ark
TTITLE5=I Can't Even Walk (Without You Holding My Hand) (feat. Brother
TTITLE5=Brian)
TTITLE6=It's Time To Go Home
TTITLE7=The Unseen Hand
TTITLE8=There's A Rainbow (At The End Of Every Storm)
TTITLE9=Slow Train (feat. Handsome Harry)
TTITLE10=Move Along Train (with Miss Mavis Staples)
TTITLE11=Souls' Chapel
EXTD=
EXTT0=
EXTT1=
EXTT2=
EXTT3=
EXTT4=
EXTT5=
EXTT6=
EXTT7=
EXTT8=
EXTT9=
EXTT10=
EXTT11=
PLAYORDER=
